<svg width="1706" height="1024" viewBox="0 0 1707 1024" fill="none" xmlns="http://www.w3.org/2000/svg">
<g clip-path="url(#clip0_26_62)">
<rect width="1706" height="1024" fill="white"/>
<path d="M518.383 107.735C518.025 109.823 511.498 115.877 507.304 115.475C505.061 115.26 507.139 113.19 502.965 111.818C502.318 111.606 501.383 110.642 498.954 112.835C496.841 114.743 498.613 117.668 500.631 119.662C502.371 121.382 503.765 118.809 504.806 120.961C505.41 122.21 504.079 122.47 504.478 123.788C505.115 125.891 506.103 127.88 508.456 127.994C510.711 128.103 513.102 126.809 513.584 124.763C514.074 122.688 509.241 119.776 511.512 119.498C514.75 119.101 519.746 112.979 522.954 110.501C524.339 109.43 524.87 116.103 527.884 114.043C529.247 113.111 532.159 113.943 531.993 111.422C531.715 107.209 528.596 107.129 528.311 106.966C526.276 105.795 524.893 108.588 523.677 106.79C522.46 104.992 523.19 105.321 522.597 104.162C521.512 102.041 520.742 101.263 518.219 101.061C515.931 100.877 515.501 100.995 514.997 103.072C514.506 105.098 518.734 105.684 518.383 107.735Z" stroke="#81E478" stroke-width="4"/>
<path d="M441.142 218.883C439.161 219.735 430.659 217.83 428.898 214.272C427.957 212.368 430.787 212.896 429.872 208.825C429.73 208.194 430.092 206.925 426.98 206.184C424.273 205.54 422.64 208.542 421.934 211.234C421.325 213.557 424.244 213.267 422.912 215.267C422.138 216.428 421.244 215.509 420.308 216.544C418.814 218.196 417.596 220.065 418.68 222.001C419.719 223.857 422.036 225.056 424.043 224.328C426.079 223.588 426.162 218.154 427.543 219.812C429.512 222.175 437.304 222.822 441.052 224.029C442.672 224.55 437.184 228.603 440.475 229.883C441.963 230.461 442.709 233.234 444.8 231.729C448.294 229.216 446.795 226.687 446.794 226.372C446.781 224.114 443.677 224.532 444.617 222.585C445.556 220.638 445.639 221.399 446.341 220.295C447.625 218.277 447.909 217.24 446.816 215.12C445.824 213.198 445.507 212.92 443.462 213.649C441.468 214.36 443.087 218.047 441.142 218.883Z" stroke="#81E478" stroke-width="4"/>
<path d="M302.786 212.986C302.492 214.843 297.116 220.224 293.662 219.867C291.815 219.676 293.526 217.835 290.089 216.616C289.556 216.427 288.786 215.571 286.786 217.52C285.046 219.216 286.505 221.816 288.167 223.588C289.6 225.117 290.747 222.83 291.605 224.743C292.102 225.853 291.006 226.085 291.335 227.256C291.859 229.125 292.673 230.893 294.611 230.994C296.468 231.091 298.437 229.941 298.834 228.123C299.237 226.279 295.257 223.69 297.128 223.443C299.794 223.09 303.909 217.648 306.55 215.445C307.691 214.494 308.128 220.425 310.61 218.594C311.732 217.766 314.131 218.505 313.994 216.264C313.766 212.519 311.196 212.448 310.962 212.303C309.286 211.262 308.147 213.745 307.146 212.147C306.144 210.548 306.745 210.841 306.257 209.811C305.363 207.925 304.729 207.234 302.651 207.054C300.767 206.891 300.412 206.996 299.998 208.842C299.593 210.643 303.075 211.163 302.786 212.986Z" stroke="#81E478" stroke-width="4"/>
<path d="M312.243 70.6908C310.007 72.3158 298.842 72.3401 295.635 68.3902C293.919 66.2775 297.606 66.137 295.311 61.3073C294.956 60.5588 295.048 58.8705 290.949 58.8245C287.383 58.7845 286.192 62.9992 286.071 66.564C285.967 69.6389 289.533 68.4505 288.433 71.3276C287.795 72.9974 286.417 72.1024 285.54 73.6607C284.14 76.1478 283.145 78.8287 285.048 80.942C286.872 82.9678 290.108 83.8114 292.41 82.3331C294.746 80.8334 293.312 74.0176 295.508 75.6988C298.638 78.0955 308.559 76.7005 313.586 77.1477C315.758 77.341 310.045 83.9605 314.521 84.6285C316.544 84.9305 318.261 88.185 320.449 85.7132C324.106 81.5829 321.517 78.8467 321.426 78.4528C320.771 75.6342 317.01 77.0349 317.633 74.3352C318.257 71.6355 318.575 72.563 319.141 70.9855C320.175 68.0987 320.237 66.723 318.27 64.3826C316.487 62.2606 316.012 62.0026 313.662 63.4921C311.37 64.945 314.438 69.0951 312.243 70.6908Z" stroke="#81E478" stroke-width="4"/>
<path d="M1311.58 154.483C1311.2 156.804 1304.29 163.53 1299.85 163.084C1297.48 162.845 1299.68 160.544 1295.26 159.02C1294.57 158.784 1293.58 157.714 1291.01 160.15C1288.77 162.27 1290.65 165.52 1292.79 167.735C1294.63 169.646 1296.1 166.788 1297.21 169.179C1297.85 170.566 1296.44 170.856 1296.86 172.32C1297.53 174.657 1298.58 176.866 1301.07 176.993C1303.46 177.114 1305.99 175.676 1306.5 173.404C1307.02 171.098 1301.9 167.863 1304.31 167.553C1307.74 167.113 1313.03 160.31 1316.42 157.557C1317.89 156.367 1318.45 163.781 1321.64 161.492C1323.08 160.457 1326.17 161.381 1325.99 158.58C1325.7 153.899 1322.4 153.811 1322.09 153.629C1319.94 152.328 1318.48 155.431 1317.19 153.433C1315.9 151.435 1316.67 151.802 1316.04 150.514C1314.89 148.156 1314.08 147.292 1311.41 147.067C1308.99 146.864 1308.53 146.994 1308 149.302C1307.48 151.553 1311.95 152.204 1311.58 154.483Z" stroke="#81E478" stroke-width="4"/>
<path d="M1526.98 -5.27442C1526.45 -1.94826 1516.85 7.69302 1510.68 7.05324C1507.38 6.71103 1510.44 3.4135 1504.3 1.22915C1503.35 0.890617 1501.97 -0.643637 1498.4 2.84865C1495.3 5.88678 1497.9 10.5446 1500.87 13.7203C1503.43 16.4595 1505.48 12.3625 1507.01 15.7894C1507.9 17.7782 1505.94 18.1936 1506.53 20.2921C1507.46 23.6412 1508.92 26.8084 1512.38 26.9898C1515.69 27.1637 1519.21 25.1027 1519.92 21.8452C1520.64 18.5407 1513.53 13.9029 1516.87 13.4597C1521.63 12.828 1528.98 3.07738 1533.7 -0.868795C1535.73 -2.57374 1536.51 8.05292 1540.95 4.77203C1542.95 3.2885 1547.23 4.61326 1546.99 0.598097C1546.58 -6.11113 1541.99 -6.23821 1541.58 -6.49875C1538.58 -8.36328 1536.55 -3.91557 1534.76 -6.77909C1532.97 -9.64261 1534.04 -9.11764 1533.17 -10.9639C1531.58 -14.3425 1530.44 -15.5812 1526.73 -15.9034C1523.37 -16.1955 1522.74 -16.0079 1522 -12.7001C1521.27 -9.47358 1527.49 -8.54067 1526.98 -5.27442Z" stroke="#81E478" stroke-width="4"/>
<path d="M217.975 122.726C217.449 126.052 207.85 135.693 201.683 135.053C198.384 134.711 201.44 131.413 195.301 129.229C194.35 128.891 192.975 127.356 189.403 130.849C186.296 133.887 188.901 138.545 191.869 141.72C194.428 144.459 196.478 140.363 198.009 143.789C198.897 145.778 196.94 146.194 197.527 148.292C198.463 151.641 199.916 154.808 203.376 154.99C206.693 155.164 210.208 153.103 210.918 149.845C211.638 146.541 204.531 141.903 207.871 141.46C212.633 140.828 219.98 131.077 224.696 127.131C226.734 125.426 227.515 136.053 231.947 132.772C233.951 131.288 238.234 132.613 237.99 128.598C237.582 121.889 232.994 121.762 232.575 121.501C229.583 119.637 227.549 124.084 225.76 121.221C223.971 118.357 225.045 118.882 224.172 117.036C222.576 113.658 221.444 112.419 217.733 112.097C214.369 111.804 213.737 111.992 212.996 115.3C212.273 118.526 218.492 119.459 217.975 122.726Z" stroke="#81E478" stroke-width="4"/>
<path d="M85.3881 148.238C85.1356 149.862 80.5279 154.571 77.5678 154.259C75.9845 154.091 77.4511 152.481 74.5047 151.414C74.048 151.249 73.3879 150.5 71.6736 152.205C70.1822 153.689 71.4327 155.964 72.8571 157.515C74.0857 158.852 75.0692 156.851 75.8042 158.525C76.2307 159.496 75.291 159.699 75.5727 160.724C76.0224 162.36 76.7196 163.906 78.3806 163.995C79.9728 164.08 81.6599 163.073 82.0007 161.483C82.3463 159.869 78.9347 157.604 80.5381 157.387C82.8237 157.079 86.3502 152.317 88.6143 150.39C89.5925 149.557 89.9672 154.747 92.0945 153.144C93.0564 152.42 95.1125 153.067 94.9952 151.106C94.7992 147.829 92.5969 147.767 92.3962 147.64C90.9597 146.73 89.9834 148.902 89.1248 147.503C88.2662 146.105 88.7814 146.361 88.3627 145.459C87.5967 143.809 87.0533 143.205 85.272 143.047C83.657 142.905 83.3536 142.996 82.9979 144.612C82.651 146.187 85.636 146.643 85.3881 148.238Z" stroke="#81E478" stroke-width="4"/>
<path d="M38.9752 300.726C38.4492 304.052 28.8497 313.693 22.6829 313.053C19.3843 312.711 22.4398 309.413 16.3014 307.229C15.35 306.891 13.9748 305.356 10.4033 308.849C7.29621 311.887 9.90141 316.545 12.8689 319.72C15.4285 322.459 17.4776 318.363 19.0087 321.789C19.8973 323.778 17.9396 324.194 18.5265 326.292C19.4633 329.641 20.9159 332.808 24.3763 332.99C27.6933 333.164 31.2082 331.103 31.9181 327.845C32.6382 324.541 25.5307 319.903 28.8711 319.46C33.6328 318.828 40.9795 309.077 45.6964 305.131C47.7343 303.426 48.5149 314.053 52.9468 310.772C54.9509 309.288 59.2344 310.613 58.99 306.598C58.5816 299.889 53.9935 299.762 53.5753 299.501C50.5827 297.637 48.5487 302.084 46.76 299.221C44.9712 296.357 46.0445 296.882 45.1724 295.036C43.5764 291.658 42.4443 290.419 38.7334 290.097C35.3688 289.804 34.7366 289.992 33.9956 293.3C33.2728 296.526 39.4916 297.459 38.9752 300.726Z" stroke="#81E478" stroke-width="4"/>
<path d="M1479.19 145.363C1478.96 146.833 1474.73 151.093 1472.02 150.81C1470.57 150.659 1471.91 149.202 1469.21 148.237C1468.79 148.087 1468.19 147.409 1466.62 148.953C1465.25 150.295 1466.4 152.353 1467.7 153.756C1468.83 154.967 1469.73 153.156 1470.4 154.671C1470.79 155.549 1469.93 155.733 1470.19 156.66C1470.6 158.14 1471.24 159.539 1472.77 159.62C1474.23 159.696 1475.77 158.786 1476.08 157.346C1476.4 155.886 1473.27 153.837 1474.74 153.641C1476.84 153.362 1480.07 149.054 1482.15 147.31C1483.04 146.557 1483.39 151.252 1485.34 149.802C1486.22 149.147 1488.1 149.732 1488 147.958C1487.82 144.994 1485.8 144.937 1485.61 144.822C1484.3 143.998 1483.4 145.964 1482.61 144.698C1481.83 143.433 1482.3 143.665 1481.92 142.849C1481.21 141.356 1480.72 140.809 1479.08 140.667C1477.6 140.538 1477.32 140.621 1477 142.082C1476.68 143.508 1479.42 143.92 1479.19 145.363Z" stroke="#81E478" stroke-width="4"/>
<path d="M616.975 -4.27442C616.449 -0.94826 606.85 8.69302 600.683 8.05324C597.384 7.71103 600.44 4.4135 594.301 2.22915C593.35 1.89062 591.975 0.356363 588.403 3.84865C585.296 6.88678 587.901 11.5446 590.869 14.7203C593.428 17.4595 595.478 13.3625 597.009 16.7894C597.897 18.7782 595.94 19.1936 596.527 21.2921C597.463 24.6412 598.916 27.8084 602.376 27.9898C605.693 28.1637 609.208 26.1027 609.918 22.8452C610.638 19.5407 603.531 14.9029 606.871 14.4597C611.633 13.828 618.98 4.07738 623.696 0.131205C625.734 -1.57374 626.515 9.05292 630.947 5.77203C632.951 4.2885 637.234 5.61326 636.99 1.5981C636.582 -5.11113 631.994 -5.23821 631.575 -5.49875C628.583 -7.36328 626.549 -2.91557 624.76 -5.77909C622.971 -8.64261 624.045 -8.11764 623.172 -9.96389C621.576 -13.3425 620.444 -14.5812 616.733 -14.9034C613.369 -15.1955 612.737 -15.0079 611.996 -11.7001C611.273 -8.47358 617.492 -7.54067 616.975 -4.27442Z" stroke="#81E478" stroke-width="4"/>
<path d="M1224.98 3.72558C1224.45 7.05174 1214.85 16.693 1208.68 16.0532C1205.38 15.711 1208.44 12.4135 1202.3 10.2291C1201.35 9.89062 1199.97 8.35636 1196.4 11.8487C1193.3 14.8868 1195.9 19.5446 1198.87 22.7203C1201.43 25.4595 1203.48 21.3625 1205.01 24.7894C1205.9 26.7782 1203.94 27.1936 1204.53 29.2921C1205.46 32.6412 1206.92 35.8084 1210.38 35.9898C1213.69 36.1637 1217.21 34.1027 1217.92 30.8452C1218.64 27.5407 1211.53 22.9029 1214.87 22.4597C1219.63 21.828 1226.98 12.0774 1231.7 8.1312C1233.73 6.42626 1234.51 17.0529 1238.95 13.772C1240.95 12.2885 1245.23 13.6133 1244.99 9.5981C1244.58 2.88887 1239.99 2.76179 1239.58 2.50125C1236.58 0.636718 1234.55 5.08443 1232.76 2.22091C1230.97 -0.642612 1232.04 -0.117641 1231.17 -1.96389C1229.58 -5.34249 1228.44 -6.58121 1224.73 -6.9034C1221.37 -7.19552 1220.74 -7.00792 1220 -3.70014C1219.27 -0.473582 1225.49 0.459326 1224.98 3.72558Z" stroke="#81E478" stroke-width="4"/>
<path d="M13.9752 2.72558C13.4492 6.05174 3.84973 15.693 -2.31709 15.0532C-5.61567 14.711 -2.56019 11.4135 -8.69862 9.22915C-9.64996 8.89062 -11.0252 7.35636 -14.5967 10.8487C-17.7038 13.8868 -15.0986 18.5446 -12.1311 21.7203C-9.57151 24.4595 -7.52242 20.3625 -5.99131 23.7894C-5.10272 25.7782 -7.06043 26.1936 -6.47346 28.2921C-5.53669 31.6412 -4.08412 34.8084 -0.623722 34.9898C2.69333 35.1637 6.20819 33.1027 6.91809 29.8452C7.63821 26.5407 0.530701 21.9029 3.87107 21.4597C8.6328 20.828 15.9795 11.0774 20.6964 7.1312C22.7343 5.42626 23.5149 16.0529 27.9468 12.772C29.9509 11.2885 34.2344 12.6133 33.99 8.5981C33.5816 1.88887 28.9935 1.76179 28.5753 1.50125C25.5827 -0.363282 23.5487 4.08443 21.76 1.22091C19.9712 -1.64261 21.0445 -1.11764 20.1724 -2.96389C18.5764 -6.34249 17.4443 -7.58121 13.7334 -7.9034C10.3688 -8.19552 9.7366 -8.00792 8.99563 -4.70014C8.27285 -1.47358 14.4916 -0.540674 13.9752 2.72558Z" stroke="#81E478" stroke-width="4"/>
<path d="M1076.98 125.726C1076.45 129.052 1066.85 138.693 1060.68 138.053C1057.38 137.711 1060.44 134.413 1054.3 132.229C1053.35 131.891 1051.97 130.356 1048.4 133.849C1045.3 136.887 1047.9 141.545 1050.87 144.72C1053.43 147.459 1055.48 143.363 1057.01 146.789C1057.9 148.778 1055.94 149.194 1056.53 151.292C1057.46 154.641 1058.92 157.808 1062.38 157.99C1065.69 158.164 1069.21 156.103 1069.92 152.845C1070.64 149.541 1063.53 144.903 1066.87 144.46C1071.63 143.828 1078.98 134.077 1083.7 130.131C1085.73 128.426 1086.51 139.053 1090.95 135.772C1092.95 134.288 1097.23 135.613 1096.99 131.598C1096.58 124.889 1091.99 124.762 1091.58 124.501C1088.58 122.637 1086.55 127.084 1084.76 124.221C1082.97 121.357 1084.04 121.882 1083.17 120.036C1081.58 116.658 1080.44 115.419 1076.73 115.097C1073.37 114.804 1072.74 114.992 1072 118.3C1071.27 121.526 1077.49 122.459 1076.98 125.726Z" stroke="#81E478" stroke-width="4"/>
<path d="M1312.08 70.3919C1309.82 73.4997 1303.5 71.5757 1304.39 75.3143C1305.22 78.7708 1308.09 80.8398 1311.4 79.5296C1312.47 79.1029 1312.79 78.2485 1313.9 77.9509C1315.22 77.6017 1315.45 77.74 1316.6 78.4546C1317.76 79.1703 1317.49 80.4437 1318.44 81.4096C1321.13 84.1181 1325.25 85.0623 1328.14 82.5763C1330.14 80.8594 1331.04 78.7154 1330.3 76.187C1329.35 72.9179 1324.73 74.9218 1322.46 72.3822C1320.42 70.1079 1323.16 65.3004 1320.52 63.7841C1318.14 62.419 1315.69 62.6231 1313.5 64.2887C1311.06 66.1518 1313.89 67.9086 1312.08 70.3919Z" stroke="#FFEA77" stroke-width="4"/>
<path d="M1302.62 56.4086C1301.57 59.6319 1302.71 62.101 1303.62 65.2291C1303.82 65.9076 1304.75 66.9587 1305.36 67.3042C1306.24 67.8014 1306.81 66.0355 1307.04 64.9831C1307.65 62.2006 1308.4 60.3943 1307.78 58.2185C1307.13 55.9071 1304.51 52.709 1303.22 54.8873C1302.99 55.2784 1302.75 55.982 1302.62 56.4086Z" stroke="#FFEA77" stroke-width="4"/>
<path d="M1333.57 60.6355C1330.33 61.6328 1329.14 63.515 1327.1 66.0553C1326.66 66.6063 1326.16 68.4462 1326.23 69.1454C1326.33 70.1515 1327.9 69.6475 1328.97 69.7948C1331.34 70.1223 1334.63 67.3835 1335.76 65.7978C1337.16 63.833 1338.26 60.298 1336.03 60.0011C1335.58 59.9412 1334 60.5035 1333.57 60.6355Z" stroke="#FFEA77" stroke-width="4"/>
<path d="M1328.61 50.9003C1325.53 52.3023 1324.02 54.2602 1323.08 57.3575C1322.87 58.0333 1322.62 59.988 1322.78 60.6727C1323 61.6579 1324.1 61.5072 1325.18 61.5172C1327.58 61.5394 1329.87 58.8749 1331.06 56.9531C1332.33 54.9114 1332.69 51.8651 1330.41 50.771C1329.99 50.5684 1329.02 50.7147 1328.61 50.9003Z" stroke="#FFEA77" stroke-width="4"/>
<path d="M1312.87 47.4521C1310.98 50.2663 1309.99 52.4732 1311.01 55.5677C1311.23 56.2507 1312.49 58.3261 1312.98 58.8257C1313.69 59.5446 1315.49 58.4163 1316.42 57.8585C1318.47 56.6181 1318.98 53.8159 1318.98 51.555C1318.98 49.634 1317.08 46.9159 1314.63 46.6377C1314.18 46.5866 1313.12 47.0797 1312.87 47.4521Z" stroke="#FFEA77" stroke-width="4"/>
<path d="M1395.01 118.181C1397.26 121.3 1393.46 126.7 1397.29 127.019C1400.83 127.314 1403.69 125.231 1403.48 121.683C1403.41 120.528 1402.7 119.963 1402.76 118.807C1402.84 117.452 1403.05 117.277 1404.08 116.404C1405.13 115.528 1406.25 116.183 1407.47 115.575C1410.88 113.87 1413.06 110.252 1411.61 106.728C1410.6 104.294 1408.84 102.766 1406.21 102.678C1402.81 102.565 1403.27 107.582 1400.15 108.945C1397.35 110.165 1393.64 106.06 1391.37 108.101C1389.33 109.938 1388.76 112.326 1389.66 114.92C1390.67 117.822 1393.22 115.688 1395.01 118.181Z" stroke="#FFEA77" stroke-width="4"/>
<path d="M1378.77 122.803C1381.51 124.805 1384.21 124.488 1387.47 124.605C1388.17 124.63 1389.46 124.076 1389.98 123.602C1390.73 122.921 1389.23 121.829 1388.3 121.28C1385.85 119.826 1384.37 118.555 1382.11 118.46C1379.71 118.358 1375.85 119.848 1377.52 121.75C1377.82 122.091 1378.41 122.538 1378.77 122.803Z" stroke="#FFEA77" stroke-width="4"/>
<path d="M1392.46 94.718C1392.39 98.1067 1393.81 99.8278 1395.59 102.557C1395.97 103.149 1397.56 104.192 1398.25 104.345C1399.24 104.564 1399.25 102.921 1399.72 101.953C1400.77 99.7995 1399.2 95.8145 1398.05 94.2475C1396.62 92.3059 1393.6 90.1562 1392.62 92.1869C1392.42 92.5958 1392.47 94.2695 1392.46 94.718Z" stroke="#FFEA77" stroke-width="4"/>
<path d="M1381.66 96.3872C1382.03 99.7563 1383.42 101.801 1386.07 103.663C1386.64 104.07 1388.42 104.92 1389.12 104.984C1390.13 105.075 1390.33 103.983 1390.67 102.962C1391.44 100.693 1389.63 97.6817 1388.18 95.9501C1386.63 94.1105 1383.85 92.8151 1382.1 94.6399C1381.77 94.9779 1381.61 95.9412 1381.66 96.3872Z" stroke="#FFEA77" stroke-width="4"/>
<path d="M1373.47 110.264C1375.55 112.937 1377.34 114.566 1380.6 114.569C1381.31 114.569 1383.68 114.024 1384.31 113.711C1385.21 113.26 1384.7 111.197 1384.46 110.147C1383.92 107.811 1381.42 106.451 1379.27 105.741C1377.45 105.138 1374.28 106.093 1373.25 108.336C1373.06 108.749 1373.19 109.91 1373.47 110.264Z" stroke="#FFEA77" stroke-width="4"/>
<path d="M1173.02 188.467C1170.94 190.923 1165.79 188.94 1166.31 192.111C1166.79 195.042 1169.07 196.94 1171.9 196.046C1172.82 195.754 1173.13 195.061 1174.08 194.88C1175.2 194.667 1175.38 194.796 1176.3 195.462C1177.22 196.128 1176.92 197.173 1177.66 198.036C1179.74 200.456 1183.12 201.49 1185.68 199.591C1187.45 198.279 1188.33 196.545 1187.86 194.393C1187.26 191.61 1183.29 193.003 1181.55 190.749C1179.99 188.731 1182.56 184.887 1180.45 183.464C1178.54 182.182 1176.49 182.206 1174.57 183.464C1172.42 184.871 1174.67 186.505 1173.02 188.467Z" stroke="#FFEA77" stroke-width="4"/>
<path d="M1165.96 176.24C1164.9 178.865 1165.7 180.992 1166.27 183.655C1166.39 184.232 1167.11 185.165 1167.6 185.489C1168.3 185.957 1168.88 184.518 1169.14 183.655C1169.82 181.372 1170.55 179.91 1170.16 178.059C1169.76 176.092 1167.77 173.268 1166.56 175.008C1166.35 175.32 1166.1 175.892 1165.96 176.24Z" stroke="#FFEA77" stroke-width="4"/>
<path d="M1191.52 181.621C1188.76 182.258 1187.65 183.756 1185.8 185.752C1185.4 186.185 1184.88 187.69 1184.89 188.277C1184.92 189.122 1186.25 188.795 1187.13 188.982C1189.09 189.398 1192 187.312 1193.04 186.057C1194.32 184.503 1195.45 181.621 1193.61 181.239C1193.23 181.163 1191.89 181.537 1191.52 181.621Z" stroke="#FFEA77" stroke-width="4"/>
<path d="M1187.97 173.206C1185.31 174.19 1183.94 175.732 1182.97 178.258C1182.76 178.809 1182.43 180.424 1182.52 181.005C1182.65 181.84 1183.57 181.78 1184.47 181.853C1186.47 182.015 1188.54 179.931 1189.65 178.4C1190.83 176.774 1191.31 174.255 1189.48 173.206C1189.14 173.012 1188.32 173.076 1187.97 173.206Z" stroke="#FFEA77" stroke-width="4"/>
<path d="M1175.05 169.387C1173.31 171.62 1172.35 173.401 1173.01 176.042C1173.16 176.625 1174.08 178.431 1174.46 178.877C1175.01 179.519 1176.58 178.686 1177.38 178.276C1179.17 177.365 1179.76 175.059 1179.9 173.174C1180.02 171.573 1178.6 169.192 1176.57 168.813C1176.2 168.743 1175.28 169.091 1175.05 169.387Z" stroke="#FFEA77" stroke-width="4"/>
<path d="M1378.35 196.127C1374.55 195.561 1373.33 189.071 1370.43 191.593C1367.75 193.926 1367.24 197.431 1369.93 199.752C1370.81 200.508 1371.71 200.391 1372.49 201.245C1373.41 202.246 1373.4 202.513 1373.3 203.867C1373.2 205.224 1371.94 205.574 1371.53 206.87C1370.37 210.504 1371.44 214.592 1374.99 216.005C1377.43 216.981 1379.75 216.789 1381.65 214.963C1384.11 212.603 1380.19 209.433 1381.39 206.246C1382.46 203.392 1387.99 203.595 1388.11 200.547C1388.22 197.804 1386.91 195.729 1384.42 194.565C1381.64 193.263 1381.39 196.58 1378.35 196.127Z" stroke="#FFEA77" stroke-width="4"/>
<path d="M1386.36 181.265C1383.02 181.829 1381.36 183.987 1379.01 186.238C1378.5 186.726 1378 188.037 1377.97 188.739C1377.94 189.749 1379.77 189.436 1380.81 189.155C1383.56 188.413 1385.51 188.235 1387.15 186.683C1388.9 185.035 1390.52 181.232 1387.99 181.101C1387.54 181.077 1386.81 181.19 1386.36 181.265Z" stroke="#FFEA77" stroke-width="4"/>
<path d="M1396.95 210.659C1394.56 208.249 1392.34 208.063 1389.15 207.433C1388.45 207.297 1386.6 207.711 1386.01 208.096C1385.16 208.651 1386.33 209.803 1386.7 210.818C1387.51 213.074 1391.46 214.726 1393.39 214.992C1395.77 215.322 1399.42 214.661 1398.65 212.542C1398.49 212.115 1397.26 210.978 1396.95 210.659Z" stroke="#FFEA77" stroke-width="4"/>
<path d="M1403.28 201.758C1400.61 199.672 1398.18 199.241 1394.99 199.84C1394.3 199.97 1392.45 200.652 1391.92 201.109C1391.15 201.766 1391.79 202.672 1392.28 203.632C1393.37 205.766 1396.8 206.566 1399.05 206.731C1401.45 206.908 1404.31 205.818 1404.23 203.29C1404.21 202.822 1403.63 202.034 1403.28 201.758Z" stroke="#FFEA77" stroke-width="4"/>
<path d="M1399.05 186.208C1395.68 185.837 1393.27 185.982 1390.99 188.314C1390.49 188.829 1389.23 190.903 1389.02 191.572C1388.71 192.535 1390.55 193.609 1391.47 194.168C1393.52 195.412 1396.24 194.567 1398.24 193.524C1399.95 192.637 1401.48 189.696 1400.59 187.393C1400.42 186.969 1399.5 186.257 1399.05 186.208Z" stroke="#FFEA77" stroke-width="4"/>
<path d="M1524.43 211.829C1525.23 215.589 1519.58 218.999 1522.95 220.835C1526.08 222.532 1529.54 221.779 1530.77 218.447C1531.17 217.361 1530.75 216.557 1531.28 215.526C1531.89 214.317 1532.15 214.239 1533.45 213.859C1534.76 213.477 1535.52 214.53 1536.88 214.464C1540.69 214.278 1544.15 211.848 1544.23 208.034C1544.29 205.401 1543.3 203.296 1540.93 202.154C1537.86 200.678 1536.26 205.455 1532.85 205.444C1529.8 205.435 1528.06 200.182 1525.16 201.136C1522.56 201.994 1521.07 203.951 1520.85 206.688C1520.6 209.749 1523.8 208.824 1524.43 211.829Z" stroke="#FFEA77" stroke-width="4"/>
<path d="M1507.71 209.514C1509.4 212.448 1512.01 213.248 1514.94 214.666C1515.57 214.974 1516.98 214.986 1517.64 214.762C1518.6 214.44 1517.67 212.836 1517.04 211.959C1515.38 209.641 1514.54 207.88 1512.51 206.882C1510.36 205.822 1506.23 205.631 1506.99 208.044C1507.12 208.477 1507.48 209.126 1507.71 209.514Z" stroke="#FFEA77" stroke-width="4"/>
<path d="M1531.55 189.326C1530.13 192.401 1530.73 194.547 1531.25 197.761C1531.37 198.458 1532.41 200.055 1532.97 200.471C1533.79 201.069 1534.46 199.57 1535.28 198.874C1537.11 197.328 1537.28 193.047 1536.86 191.148C1536.33 188.795 1534.44 185.612 1532.72 187.076C1532.38 187.37 1531.74 188.919 1531.55 189.326Z" stroke="#FFEA77" stroke-width="4"/>
<path d="M1521 186.502C1519.98 189.734 1520.42 192.164 1522.1 194.936C1522.46 195.541 1523.75 197.036 1524.36 197.376C1525.25 197.866 1525.87 196.947 1526.6 196.153C1528.22 194.385 1527.77 190.898 1527.14 188.728C1526.46 186.422 1524.44 184.115 1522.1 185.08C1521.67 185.258 1521.13 186.074 1521 186.502Z" stroke="#FFEA77" stroke-width="4"/>
<path d="M1507.91 195.9C1508.74 199.186 1509.72 201.397 1512.7 202.712C1513.35 203.002 1515.74 203.456 1516.44 203.423C1517.45 203.375 1517.81 201.282 1518.02 200.223C1518.46 197.869 1516.72 195.615 1515.04 194.101C1513.62 192.814 1510.33 192.408 1508.48 194.045C1508.14 194.347 1507.8 195.465 1507.91 195.9Z" stroke="#FFEA77" stroke-width="4"/>
<path d="M1524.21 107.803C1520.63 109.202 1516.34 104.178 1515.08 107.809C1513.92 111.166 1515.22 114.457 1518.71 115.133C1519.85 115.353 1520.57 114.803 1521.67 115.155C1522.97 115.568 1523.09 115.807 1523.67 117.032C1524.26 118.258 1523.35 119.185 1523.64 120.514C1524.44 124.243 1527.4 127.258 1531.18 126.722C1533.78 126.352 1535.7 125.033 1536.44 122.505C1537.4 119.236 1532.42 118.433 1531.88 115.071C1531.39 112.06 1536.29 109.487 1534.88 106.783C1533.61 104.35 1531.44 103.203 1528.7 103.43C1525.64 103.683 1527.07 106.685 1524.21 107.803Z" stroke="#FFEA77" stroke-width="4"/>
<path d="M1523.77 90.9241C1521.15 93.075 1520.79 95.7722 1519.86 98.8954C1519.66 99.5728 1519.88 100.959 1520.21 101.58C1520.68 102.473 1522.11 101.292 1522.88 100.531C1524.9 98.5183 1526.5 97.3973 1527.15 95.2332C1527.85 92.9343 1527.36 88.8285 1525.1 89.9707C1524.7 90.1758 1524.12 90.6395 1523.77 90.9241Z" stroke="#FFEA77" stroke-width="4"/>
<path d="M1547.57 111.164C1544.3 110.258 1542.29 111.201 1539.2 112.243C1538.53 112.469 1537.12 113.754 1536.81 114.38C1536.35 115.281 1537.94 115.699 1538.76 116.399C1540.58 117.954 1544.83 117.422 1546.64 116.694C1548.87 115.792 1551.7 113.407 1549.98 111.953C1549.63 111.66 1548 111.284 1547.57 111.164Z" stroke="#FFEA77" stroke-width="4"/>
<path d="M1548.64 100.291C1545.28 99.8097 1542.96 100.646 1540.5 102.748C1539.96 103.206 1538.69 104.717 1538.46 105.379C1538.12 106.331 1539.13 106.797 1540.03 107.386C1542.04 108.697 1545.4 107.688 1547.44 106.71C1549.61 105.672 1551.55 103.301 1550.22 101.15C1549.98 100.752 1549.08 100.355 1548.64 100.291Z" stroke="#FFEA77" stroke-width="4"/>
<path d="M1537.24 88.9046C1534.13 90.2577 1532.11 91.5839 1531.29 94.7374C1531.12 95.4335 1531.05 97.8587 1531.2 98.5458C1531.41 99.5345 1533.54 99.5543 1534.62 99.5813C1537.01 99.6414 1538.95 97.556 1540.17 95.6532C1541.21 94.0365 1541.08 90.7237 1539.16 89.1678C1538.81 88.8816 1537.65 88.7255 1537.24 88.9046Z" stroke="#FFEA77" stroke-width="4"/>
<path d="M124.919 169.177C123.891 165.094 129.941 161.129 126.169 159.259C122.681 157.529 118.925 158.495 117.71 162.193C117.315 163.398 117.813 164.261 117.279 165.41C116.652 166.759 116.376 166.855 114.964 167.325C113.551 167.796 112.67 166.675 111.185 166.803C107.023 167.163 103.34 169.965 103.402 174.142C103.445 177.027 104.615 179.291 107.261 180.443C110.681 181.932 112.238 176.638 115.966 176.51C119.305 176.396 121.427 182.073 124.559 180.91C127.378 179.864 128.923 177.662 129.053 174.657C129.199 171.296 125.74 172.439 124.919 169.177Z" stroke="#FFEA77" stroke-width="4"/>
<path d="M143.32 171.024C141.343 167.882 138.463 167.113 135.196 165.681C134.487 165.371 132.951 165.415 132.231 165.687C131.196 166.079 132.282 167.796 133.004 168.73C134.913 171.2 135.911 173.092 138.173 174.102C140.575 175.174 145.103 175.213 144.173 172.603C144.006 172.135 143.582 171.44 143.32 171.024Z" stroke="#FFEA77" stroke-width="4"/>
<path d="M118.052 194.099C119.485 190.675 118.739 188.351 118.031 184.855C117.877 184.096 116.676 182.391 116.039 181.959C115.122 181.337 114.449 183.006 113.577 183.801C111.636 185.569 111.629 190.261 112.171 192.322C112.844 194.877 115.046 198.282 116.863 196.61C117.229 196.273 117.862 194.552 118.052 194.099Z" stroke="#FFEA77" stroke-width="4"/>
<path d="M129.719 196.757C130.704 193.178 130.115 190.536 128.17 187.57C127.746 186.923 126.279 185.34 125.592 184.993C124.604 184.493 123.959 185.524 123.194 186.424C121.495 188.424 122.127 192.222 122.909 194.572C123.739 197.069 126.048 199.51 128.568 198.359C129.035 198.146 129.589 197.231 129.719 196.757Z" stroke="#FFEA77" stroke-width="4"/>
<path d="M143.662 185.933C142.619 182.37 141.456 179.991 138.141 178.673C137.41 178.383 134.783 177.984 134.016 178.049C132.912 178.143 132.598 180.449 132.421 181.616C132.026 184.212 134.025 186.607 135.924 188.195C137.538 189.545 141.157 189.855 143.111 187.987C143.47 187.643 143.8 186.405 143.662 185.933Z" stroke="#FFEA77" stroke-width="4"/>
<path d="M352.264 227.321C348.258 228.423 344.215 222.541 342.451 226.303C340.821 229.781 341.856 233.466 345.531 234.584C346.727 234.948 347.568 234.438 348.714 234.94C350.059 235.529 350.159 235.8 350.653 237.182C351.149 238.566 350.062 239.46 350.221 240.922C350.666 245.02 353.511 248.593 357.631 248.441C360.476 248.336 362.684 247.132 363.763 244.497C365.158 241.091 359.901 239.67 359.694 235.994C359.508 232.703 365.063 230.486 363.848 227.421C362.754 224.662 360.548 223.185 357.581 223.122C354.261 223.052 355.465 226.44 352.264 227.321Z" stroke="#FFEA77" stroke-width="4"/>
<path d="M353.686 209.126C350.629 211.144 349.934 214.003 348.592 217.257C348.301 217.963 348.378 219.477 348.662 220.182C349.071 221.195 350.742 220.086 351.648 219.353C354.043 217.416 355.888 216.39 356.834 214.137C357.84 211.743 357.78 207.275 355.226 208.25C354.767 208.425 354.091 208.858 353.686 209.126Z" stroke="#FFEA77" stroke-width="4"/>
<path d="M377.001 233.553C373.592 232.214 371.315 233.001 367.882 233.775C367.137 233.943 365.48 235.166 365.068 235.804C364.474 236.721 366.136 237.349 366.939 238.193C368.725 240.069 373.355 239.974 375.377 239.394C377.882 238.675 381.194 236.429 379.505 234.672C379.165 234.318 377.453 233.731 377.001 233.553Z" stroke="#FFEA77" stroke-width="4"/>
<path d="M379.37 221.985C375.818 221.091 373.224 221.73 370.34 223.713C369.711 224.145 368.181 225.628 367.853 226.313C367.381 227.298 368.413 227.912 369.317 228.647C371.328 230.28 375.062 229.573 377.363 228.751C379.808 227.878 382.166 225.547 380.976 223.086C380.755 222.63 379.84 222.103 379.37 221.985Z" stroke="#FFEA77" stroke-width="4"/>
<path d="M368.388 208.465C364.896 209.571 362.573 210.77 361.346 214.069C361.075 214.797 360.738 217.398 360.819 218.153C360.936 219.239 363.218 219.499 364.374 219.649C366.943 219.982 369.262 217.958 370.788 216.049C372.085 214.427 372.312 210.851 370.426 208.963C370.079 208.616 368.851 208.318 368.388 208.465Z" stroke="#FFEA77" stroke-width="4"/>
<path d="M135.201 76.1619C134.669 80.3384 127.591 81.8245 130.421 84.9416C133.038 87.8235 136.887 88.2935 139.367 85.2929C140.174 84.3158 140.025 83.3301 140.941 82.4544C142.017 81.4268 142.31 81.4388 143.795 81.5154C145.283 81.5922 145.695 82.9573 147.124 83.3791C151.131 84.562 155.582 83.2954 157.047 79.3831C158.059 76.6811 157.794 74.1467 155.751 72.1096C153.11 69.4757 149.73 73.838 146.211 72.5977C143.061 71.4869 143.155 65.4266 139.815 65.3674C136.807 65.3141 134.566 66.8012 133.349 69.5517C131.988 72.6284 135.626 72.8246 135.201 76.1619Z" stroke="#FFEA77" stroke-width="4"/>
<path d="M118.74 67.7328C119.435 71.3794 121.837 73.1452 124.357 75.6698C124.903 76.2174 126.35 76.736 127.12 76.7449C128.227 76.7577 127.841 74.7626 127.509 73.6295C126.632 70.6341 126.393 68.5079 124.655 66.7437C122.809 64.8696 118.607 63.1819 118.522 65.9512C118.507 66.4484 118.648 67.2502 118.74 67.7328Z" stroke="#FFEA77" stroke-width="4"/>
<path d="M150.682 55.4589C148.099 58.1251 147.947 60.5612 147.331 64.0745C147.197 64.8366 147.695 66.8628 148.13 67.4974C148.757 68.4105 149.992 67.1017 151.094 66.6797C153.546 65.7414 155.264 61.3745 155.51 59.2572C155.815 56.6338 155.006 52.66 152.704 53.5542C152.241 53.7343 151.023 55.106 150.682 55.4589Z" stroke="#FFEA77" stroke-width="4"/>
<path d="M140.787 48.7301C138.565 51.7038 138.15 54.3789 138.88 57.849C139.039 58.6061 139.828 60.6155 140.341 61.1894C141.079 62.0152 142.055 61.2901 143.095 60.731C145.407 59.4878 146.203 55.7203 146.332 53.2473C146.469 50.6201 145.21 47.505 142.443 47.6581C141.931 47.6864 141.081 48.3365 140.787 48.7301Z" stroke="#FFEA77" stroke-width="4"/>
<path d="M123.858 53.7253C123.53 57.423 123.745 60.063 126.351 62.4981C126.927 63.0355 129.227 64.365 129.965 64.5838C131.027 64.8988 132.16 62.8658 132.751 61.8437C134.065 59.571 133.077 56.6119 131.887 54.4399C130.877 52.5944 127.62 50.9872 125.119 52.0141C124.659 52.203 123.901 53.2359 123.858 53.7253Z" stroke="#FFEA77" stroke-width="4"/>
<path d="M267.216 146.377C263.065 146.545 260.457 139.901 257.888 143.166C255.513 146.185 255.688 150.009 259.014 151.929C260.098 152.555 261.033 152.247 262.035 152.995C263.212 153.873 263.248 154.16 263.417 155.618C263.587 157.078 262.326 157.704 262.15 159.163C261.657 163.256 263.62 167.38 267.668 168.163C270.463 168.704 272.886 168.031 274.533 165.709C276.662 162.706 271.862 160.133 272.492 156.505C273.055 153.257 278.968 152.354 278.477 149.094C278.036 146.159 276.221 144.222 273.344 143.489C270.127 142.67 270.533 146.242 267.216 146.377Z" stroke="#FFEA77" stroke-width="4"/>
<path d="M272.716 128.975C269.282 130.25 267.958 132.877 265.915 135.743C265.472 136.365 265.204 137.858 265.322 138.608C265.492 139.688 267.37 138.985 268.418 138.476C271.189 137.131 273.218 136.549 274.65 134.568C276.17 132.464 277.123 128.098 274.414 128.47C273.928 128.537 273.171 128.806 272.716 128.975Z" stroke="#FFEA77" stroke-width="4"/>
<path d="M289.903 158.042C286.885 155.966 284.489 156.218 280.969 156.196C280.206 156.191 278.316 157.008 277.77 157.536C276.984 158.295 278.46 159.282 279.052 160.286C280.368 162.518 284.899 163.472 287 163.364C289.603 163.23 293.337 161.791 292.089 159.698C291.837 159.276 290.303 158.317 289.903 158.042Z" stroke="#FFEA77" stroke-width="4"/>
<path d="M294.827 147.309C291.568 145.635 288.897 145.67 285.64 146.95C284.93 147.229 283.104 148.327 282.629 148.92C281.947 149.774 282.813 150.605 283.528 151.525C285.117 153.571 288.914 153.727 291.341 153.446C293.92 153.149 296.745 151.412 296.142 148.745C296.03 148.251 295.258 147.53 294.827 147.309Z" stroke="#FFEA77" stroke-width="4"/>
<path d="M287.187 131.655C283.535 131.943 281.001 132.586 279.06 135.522C278.631 136.17 277.715 138.627 277.623 139.381C277.491 140.466 279.655 141.235 280.747 141.642C283.174 142.548 285.891 141.1 287.81 139.586C289.44 138.3 290.469 134.867 289.059 132.602C288.8 132.185 287.67 131.617 287.187 131.655Z" stroke="#FFEA77" stroke-width="4"/>
<path d="M448.912 163.649C445.063 162.084 445.438 154.957 441.748 156.867C438.337 158.633 436.914 162.186 439.148 165.311C439.875 166.328 440.853 166.435 441.457 167.531C442.165 168.817 442.079 169.093 441.63 170.491C441.18 171.89 439.774 171.938 439.009 173.194C436.867 176.716 436.948 181.283 440.309 183.67C442.63 185.32 445.114 185.709 447.574 184.276C450.755 182.423 447.45 178.095 449.524 175.053C451.381 172.329 457.138 173.953 458.04 170.782C458.852 167.928 458.001 165.413 455.686 163.556C453.096 161.479 451.987 164.899 448.912 163.649Z" stroke="#FFEA77" stroke-width="4"/>
<path d="M461.119 150.082C457.465 149.822 455.173 151.666 452.127 153.43C451.466 153.813 450.605 155.061 450.402 155.793C450.109 156.846 452.11 156.983 453.275 156.954C456.354 156.875 458.443 157.185 460.565 155.974C462.82 154.688 465.494 151.107 462.874 150.325C462.404 150.185 461.603 150.117 461.119 150.082Z" stroke="#FFEA77" stroke-width="4"/>
<path d="M464.739 183.656C462.85 180.517 460.565 179.756 457.37 178.279C456.677 177.959 454.618 177.92 453.903 178.175C452.873 178.541 453.809 180.051 453.932 181.209C454.206 183.785 457.937 186.529 459.894 187.3C462.319 188.255 466.314 188.49 466.044 186.068C465.99 185.58 464.989 184.072 464.739 183.656Z" stroke="#FFEA77" stroke-width="4"/>
<path d="M473.663 175.922C471.389 173.049 468.942 171.977 465.448 171.794C464.685 171.754 462.569 171.998 461.892 172.342C460.917 172.837 461.362 173.952 461.632 175.085C462.232 177.605 465.624 179.318 467.95 180.067C470.421 180.863 473.711 180.45 474.266 177.773C474.368 177.277 473.964 176.302 473.663 175.922Z" stroke="#FFEA77" stroke-width="4"/>
<path d="M473.184 158.51C469.74 157.261 467.168 156.798 464.185 158.667C463.527 159.08 461.677 160.938 461.281 161.586C460.712 162.519 462.364 164.115 463.189 164.937C465.024 166.766 468.097 166.573 470.47 165.988C472.486 165.491 474.843 162.792 474.497 160.147C474.433 159.66 473.64 158.675 473.184 158.51Z" stroke="#FFEA77" stroke-width="4"/>
<path d="M387.467 68.3106C383.992 72.4272 375.355 69.1026 376.228 74.4183C377.036 79.3329 380.844 82.5141 385.594 81.0148C387.14 80.5265 387.665 79.3638 389.258 79.0603C391.128 78.7041 391.434 78.9205 392.976 80.0354C394.521 81.1522 394.015 82.905 395.256 84.3515C398.738 88.4075 404.4 90.1415 408.693 86.9575C411.658 84.7585 413.136 81.8524 412.358 78.2438C411.351 73.5781 404.688 75.9142 401.771 72.1361C399.159 68.7527 403.473 62.3083 399.926 59.9226C396.733 57.7749 393.292 57.814 390.073 59.9226C386.472 62.2813 390.243 65.0211 387.467 68.3106Z" stroke="#FFEA77" stroke-width="4"/>
<path d="M375.644 47.8128C373.856 52.213 375.209 55.7796 376.16 60.2431C376.366 61.2112 377.56 62.774 378.38 63.3185C379.561 64.1021 380.534 61.6909 380.965 60.2431C382.105 56.4156 383.326 53.9655 382.686 50.8623C382.005 47.5658 378.665 42.8318 376.649 45.7475C376.287 46.2709 375.881 47.2304 375.644 47.8128Z" stroke="#FFEA77" stroke-width="4"/>
<path d="M418.488 56.834C413.859 57.9023 412.003 60.4133 408.899 63.7593C408.226 64.4851 407.351 67.0073 407.378 67.9916C407.416 69.408 409.653 68.8607 411.131 69.174C414.417 69.8706 419.297 66.3735 421.033 64.2705C423.185 61.6646 425.079 56.834 421.984 56.1941C421.361 56.0652 419.1 56.6926 418.488 56.834Z" stroke="#FFEA77" stroke-width="4"/>
<path d="M412.536 42.7272C408.082 44.3768 405.777 46.9619 404.149 51.1966C403.793 52.1205 403.244 54.8276 403.396 55.8005C403.614 57.2005 405.167 57.1005 406.673 57.2229C410.021 57.4949 413.495 54.001 415.353 51.4344C417.326 48.7078 418.139 44.486 415.061 42.7272C414.491 42.4015 413.126 42.5089 412.536 42.7272Z" stroke="#FFEA77" stroke-width="4"/>
<path d="M390.88 36.3244C387.957 40.0682 386.352 43.0535 387.459 47.4811C387.704 48.4584 389.251 51.4858 389.891 52.2338C390.813 53.3102 393.443 51.9142 394.789 51.2272C397.78 49.6995 398.776 45.834 399.008 42.6739C399.205 39.989 396.824 35.9986 393.424 35.3632C392.799 35.2462 391.266 35.8288 390.88 36.3244Z" stroke="#FFEA77" stroke-width="4"/>
<path d="M1680.98 142.726C1680.45 146.052 1670.85 155.693 1664.68 155.053C1661.38 154.711 1664.44 151.413 1658.3 149.229C1657.35 148.891 1655.97 147.356 1652.4 150.849C1649.3 153.887 1651.9 158.545 1654.87 161.72C1657.43 164.459 1659.48 160.363 1661.01 163.789C1661.9 165.778 1659.94 166.194 1660.53 168.292C1661.46 171.641 1662.92 174.808 1666.38 174.99C1669.69 175.164 1673.21 173.103 1673.92 169.845C1674.64 166.541 1667.53 161.903 1670.87 161.46C1675.63 160.828 1682.98 151.077 1687.7 147.131C1689.73 145.426 1690.51 156.053 1694.95 152.772C1696.95 151.288 1701.23 152.613 1700.99 148.598C1700.58 141.889 1695.99 141.762 1695.58 141.501C1692.58 139.637 1690.55 144.084 1688.76 141.221C1686.97 138.357 1688.04 138.882 1687.17 137.036C1685.58 133.658 1684.44 132.419 1680.73 132.097C1677.37 131.804 1676.74 131.992 1676 135.3C1675.27 138.526 1681.49 139.459 1680.98 142.726Z" stroke="#81E478" stroke-width="4"/>
<path d="M398.511 -4.64374C396.215 3.15525 402.073 8.22 407.756 13.9746C415.152 21.4636 420.39 25 420.39 25C420.39 25 426.245 19.6953 431.587 13.9746C438.384 6.69507 442.064 0.660923 440.729 -6.82802C440.055 -10.6052 439.184 -12.6954 435.798 -14.421C432.036 -16.3385 428.569 -16.7062 425.013 -14.421C422.108 -12.5546 423.866 -6.57928 420.39 -6.82802C417.051 -7.06699 419.165 -12.4666 416.487 -14.421C413.005 -16.962 409.488 -16.0193 405.496 -14.421C400.743 -12.5178 399.971 -9.60315 398.511 -4.64374Z" stroke="#D45050" stroke-width="8"/>
<path d="M1430.34 46.7555C1428.8 52.0816 1432.75 55.5405 1436.58 59.4705C1441.57 64.5849 1445.1 67 1445.1 67C1445.1 67 1449.05 63.3773 1452.65 59.4705C1457.24 54.4991 1459.72 50.3782 1458.82 45.2638C1458.36 42.6842 1457.78 41.2568 1455.49 40.0784C1452.95 38.7688 1450.62 38.5177 1448.22 40.0784C1446.26 41.353 1447.44 45.4337 1445.1 45.2638C1442.85 45.1006 1444.27 41.4131 1442.47 40.0784C1440.12 38.343 1437.75 38.9868 1435.06 40.0784C1431.85 41.3781 1431.33 43.3686 1430.34 46.7555Z" stroke="#D45050" stroke-width="8"/>
<path d="M47.0308 248.765C49.0671 251.699 52.4212 251.071 55.9631 250.692C60.5725 250.2 63.2318 249.365 63.2318 249.365C63.2318 249.365 63.0335 245.89 62.5507 242.478C61.9364 238.135 60.8871 235.209 57.9531 233.613C56.4732 232.807 55.5165 232.534 53.9895 233.227C52.2928 233.997 51.2085 235.091 51.0081 236.945C50.8444 238.459 53.3767 239.494 52.3308 240.624C51.326 241.709 50.061 239.497 48.6513 239.884C46.8183 240.386 46.1689 241.857 45.613 243.672C44.951 245.833 45.7359 246.9 47.0308 248.765Z" stroke="#D45050" stroke-width="8"/>
<path d="M834.721 72.9739C830.92 74.6726 830.891 78.6363 830.536 82.7613C830.073 88.1295 830.435 91.3441 830.435 91.3441C830.435 91.3441 834.446 91.8598 838.449 92.0373C843.542 92.2631 847.115 91.6899 849.59 88.6808C850.839 87.163 851.364 86.1292 850.912 84.2376C850.41 82.1358 849.402 80.6641 847.331 80.0394C845.639 79.5292 843.894 82.1996 842.837 80.7642C841.822 79.3851 844.628 78.413 844.5 76.7208C844.334 74.5207 842.799 73.465 840.85 72.4427C838.531 71.2254 837.139 71.8937 834.721 72.9739Z" stroke="#D45050" stroke-width="8"/>
<path d="M356.392 150.863C354.63 156.95 359.126 160.903 363.487 165.395C369.163 171.24 373.183 174 373.183 174C373.183 174 377.677 169.86 381.776 165.395C386.992 159.713 389.817 155.004 388.792 149.159C388.275 146.211 387.606 144.579 385.008 143.232C382.121 141.736 379.46 141.449 376.731 143.232C374.502 144.689 375.85 149.353 373.183 149.159C370.621 148.972 372.243 144.758 370.188 143.232C367.515 141.249 364.816 141.985 361.753 143.232C358.105 144.718 357.513 146.993 356.392 150.863Z" stroke="#D45050" stroke-width="8"/>
<path d="M202.893 38.9118C209.981 42.8944 216.228 38.3176 223.108 34.0658C232.061 28.5325 236.68 24.2175 236.68 24.2175C236.68 24.2175 232.819 17.3244 228.438 10.8387C222.863 2.58584 217.805 -2.35109 210.207 -2.72467C206.375 -2.91309 204.143 -2.53153 201.704 0.382567C198.994 3.62068 197.86 6.91739 199.292 10.8948C200.461 14.1433 206.678 13.7667 205.658 17.0984C204.678 20.2993 199.889 17.0312 197.385 19.2045C194.129 22.0302 194.261 25.6691 194.926 29.917C195.718 34.9749 198.386 36.3793 202.893 38.9118Z" stroke="#D45050" stroke-width="8"/>
<path d="M966.357 62.7555C964.755 68.0816 968.842 71.5405 972.806 75.4705C977.966 80.5849 981.621 83 981.621 83C981.621 83 985.706 79.3773 989.433 75.4705C994.175 70.4991 996.742 66.3782 995.811 61.2638C995.341 58.6842 994.733 57.2568 992.371 56.0784C989.746 54.7688 987.327 54.5177 984.846 56.0784C982.82 57.353 984.046 61.4337 981.621 61.2638C979.292 61.1006 980.767 57.4131 978.898 56.0784C976.468 54.343 974.015 54.9868 971.23 56.0784C967.914 57.3781 967.375 59.3686 966.357 62.7555Z" stroke="#D45050" stroke-width="8"/>
<path d="M1660.36 0.0324755C1658.75 5.54883 1662.84 9.13122 1666.81 13.2016C1671.97 18.4986 1675.62 21 1675.62 21C1675.62 21 1679.71 17.2479 1683.43 13.2016C1688.17 8.05261 1690.74 3.78455 1689.81 -1.5125C1689.34 -4.18419 1688.73 -5.66257 1686.37 -6.88313C1683.75 -8.23941 1681.33 -8.4995 1678.85 -6.88313C1676.82 -5.56301 1678.05 -1.33657 1675.62 -1.5125C1673.29 -1.68153 1674.77 -5.50073 1672.9 -6.88313C1670.47 -8.68046 1668.01 -8.01366 1665.23 -6.88313C1661.91 -5.53702 1661.38 -3.4754 1660.36 0.0324755Z" stroke="#D45050" stroke-width="8"/>
<path d="M-5.64336 102.032C-7.24543 107.549 -3.15844 111.131 0.806448 115.202C5.96627 120.499 9.62116 123 9.62116 123C9.62116 123 13.706 119.248 17.4326 115.202C22.1746 110.053 24.7424 105.785 23.8107 100.487C23.3408 97.8158 22.7331 96.3374 20.3708 95.1169C17.746 93.7606 15.3273 93.5005 12.8461 95.1169C10.8196 96.437 12.0458 100.663 9.62116 100.487C7.2917 100.318 8.76651 96.4993 6.89791 95.1169C4.46844 93.3195 2.01455 93.9863 -0.770195 95.1169C-4.08599 96.463 -4.6246 98.5246 -5.64336 102.032Z" stroke="#D45050" stroke-width="8"/>
<path d="M1536.12 169.394C1535.58 171.296 1536.95 172.531 1538.27 173.935C1539.99 175.762 1541.21 176.624 1541.21 176.624C1541.21 176.624 1542.57 175.33 1543.81 173.935C1545.39 172.159 1546.25 170.688 1545.94 168.861C1545.78 167.94 1545.58 167.43 1544.79 167.009C1543.92 166.542 1543.11 166.452 1542.28 167.009C1541.61 167.464 1542.02 168.922 1541.21 168.861C1540.43 168.803 1540.92 167.486 1540.3 167.009C1539.49 166.389 1538.67 166.619 1537.74 167.009C1536.64 167.473 1536.46 168.184 1536.12 169.394Z" stroke="#D45050" stroke-width="8"/>
<path d="M1255.25 123.54C1254.13 127.344 1256.99 129.815 1259.76 132.622C1263.38 136.275 1265.93 138 1265.93 138C1265.93 138 1268.79 135.412 1271.4 132.622C1274.72 129.071 1276.52 126.127 1275.87 122.474C1275.54 120.632 1275.11 119.612 1273.46 118.77C1271.62 117.835 1269.93 117.656 1268.19 118.77C1266.77 119.681 1267.63 122.595 1265.93 122.474C1264.3 122.358 1265.34 119.724 1264.03 118.77C1262.33 117.531 1260.61 117.991 1258.66 118.77C1256.34 119.699 1255.96 121.12 1255.25 123.54Z" stroke="#D45050" stroke-width="8"/>
<path d="M226.285 247.094C225.004 251.278 228.273 253.996 231.445 257.084C235.573 261.102 238.497 263 238.497 263C238.497 263 241.765 260.154 244.746 257.084C248.54 253.178 250.594 249.94 249.849 245.922C249.473 243.895 248.986 242.773 247.097 241.847C244.997 240.818 243.062 240.621 241.077 241.847C239.456 242.849 240.437 246.055 238.497 245.922C236.633 245.793 237.813 242.896 236.318 241.847C234.375 240.484 232.412 240.99 230.184 241.847C227.531 242.868 227.1 244.432 226.285 247.094Z" stroke="#D45050" stroke-width="8"/>
<path d="M652 68.7014C654.285 67.0158 661.139 61.959 663.424 60.2734C665.709 58.5878 667.408 68.3618 672.258 69.9273C679.487 72.2607 681.962 57.8618 689.166 60.2734C694.296 61.9911 698 71 698 71" stroke="#FEDE29" stroke-width="10" stroke-linecap="round"/>
<path d="M1331 995.701C1333.28 994.016 1340.14 988.959 1342.42 987.273C1344.71 985.588 1346.41 995.362 1351.26 996.927C1358.49 999.261 1360.96 984.862 1368.17 987.273C1373.3 988.991 1377 998 1377 998" stroke="#FEDE29" stroke-width="10" stroke-linecap="round"/>
<path d="M122 965.701C124.285 964.016 131.139 958.959 133.424 957.273C135.709 955.588 137.408 965.362 142.258 966.927C149.487 969.261 151.962 954.862 159.166 957.273C164.296 958.991 168 968 168 968" stroke="#FEDE29" stroke-width="10" stroke-linecap="round"/>
<path d="M1123 308.701C1125.28 307.016 1132.14 301.959 1134.42 300.273C1136.71 298.588 1138.41 308.362 1143.26 309.927C1150.49 312.261 1152.96 297.862 1160.17 300.273C1165.3 301.991 1169 311 1169 311" stroke="#FEDE29" stroke-width="10" stroke-linecap="round"/>
</g>
<defs>
<clipPath id="clip0_26_62">
<rect width="1707" height="1024" fill="white"/>
</clipPath>
</defs>
</svg>
