<svg width="1707" height="816" viewBox="0 0 1707 816" fill="none" xmlns="http://www.w3.org/2000/svg">
<path d="M1644.84 622.419C1775.1 424.919 1729.55 111.853 1611.66 -161.081L17.9721 -192L-80 210.419C-80 210.419 -54.819 450.78 51.1077 511.666C132.279 558.323 196.5 578.419 278.494 516.931C384.713 437.279 387.872 389.12 508.97 334.937C611.986 288.845 667.536 313.603 779 332.919C1093.5 387.419 964.442 594.913 1143.96 737.666C1323.48 880.418 1514.58 819.919 1644.84 622.419Z" fill="#FFF7D2"/>
<path d="M1661.84 578.419C1792.1 380.919 1746.55 67.8528 1628.66 -205.081L34.9721 -236L-63 166.419C-63 166.419 -37.819 406.78 68.1077 467.666C149.279 514.323 213.5 534.419 295.494 472.931C401.713 393.279 404.872 345.12 525.97 290.937C628.986 244.845 684.536 269.603 796 288.919C1110.5 343.419 981.442 550.913 1160.96 693.666C1340.48 836.418 1531.58 775.919 1661.84 578.419Z" fill="#FFF3AB"/>
<path d="M1661.84 544.5C1792.1 347 1746.55 33.9343 1628.66 -239L34.9721 -269.919L-63 132.5C-63 132.5 -37.819 372.861 68.1077 433.747C149.279 480.404 213.5 500.5 295.494 439.013C401.713 359.36 404.872 311.201 525.97 257.018C628.986 210.926 684.536 235.684 796 255C1110.5 309.5 977 522.5 1160.96 659.747C1344.92 796.995 1531.58 742 1661.84 544.5Z" fill="#FEDE29"/>
<path d="M1928 -326C2058.26 -523.5 1839.89 -514.066 1722 -787L72.9721 -454C34.7117 -296.846 -129.74 -328.654 -168 -171.5C-168 -171.5 -142.819 68.8613 -36.8923 129.747C44.279 176.404 193.506 191.234 275.5 129.747C381.718 50.0949 444.901 140.683 566 86.5C669.015 40.408 722.536 51.6027 834 70.9185C1148.5 125.418 1192.27 10.413 1371.78 153.166C1551.3 295.918 1797.74 -128.5 1928 -326Z" fill="#FFEA77"/>
</svg>
