<svg width="196" height="172" viewBox="0 0 196 172" fill="none" xmlns="http://www.w3.org/2000/svg">
<path d="M96.1818 77.4545C96.1818 87.8182 94.1667 96.5606 90.1364 103.682C86.1061 110.773 80.6667 116.152 73.8182 119.818C66.9697 123.455 59.3333 125.273 50.9091 125.273C42.4242 125.273 34.7576 123.439 27.9091 119.773C21.0909 116.076 15.6667 110.682 11.6364 103.591C7.63636 96.4697 5.63636 87.7576 5.63636 77.4545C5.63636 67.0909 7.63636 58.3636 11.6364 51.2727C15.6667 44.1515 21.0909 38.7727 27.9091 35.1364C34.7576 31.4697 42.4242 29.6364 50.9091 29.6364C59.3333 29.6364 66.9697 31.4697 73.8182 35.1364C80.6667 38.7727 86.1061 44.1515 90.1364 51.2727C94.1667 58.3636 96.1818 67.0909 96.1818 77.4545ZM70.1818 77.4545C70.1818 71.8788 69.4394 67.1818 67.9545 63.3636C66.5 59.5151 64.3333 56.6061 61.4545 54.6364C58.6061 52.6364 55.0909 51.6364 50.9091 51.6364C46.7273 51.6364 43.197 52.6364 40.3182 54.6364C37.4697 56.6061 35.303 59.5151 33.8182 63.3636C32.3636 67.1818 31.6364 71.8788 31.6364 77.4545C31.6364 83.0303 32.3636 87.7424 33.8182 91.5909C35.303 95.4091 37.4697 98.3182 40.3182 100.318C43.197 102.288 46.7273 103.273 50.9091 103.273C55.0909 103.273 58.6061 102.288 61.4545 100.318C64.3333 98.3182 66.5 95.4091 67.9545 91.5909C69.4394 87.7424 70.1818 83.0303 70.1818 77.4545ZM107.875 124V30.9091H148.057C154.966 30.9091 161.011 32.1667 166.193 34.6818C171.375 37.197 175.405 40.8182 178.284 45.5455C181.163 50.2727 182.602 55.9394 182.602 62.5455C182.602 69.2121 181.117 74.8333 178.148 79.4091C175.208 83.9848 171.072 87.4394 165.739 89.7727C160.436 92.1061 154.239 93.2727 147.148 93.2727H123.148V73.6364H142.057C145.027 73.6364 147.557 73.2727 149.648 72.5455C151.769 71.7879 153.39 70.5909 154.511 68.9545C155.663 67.3182 156.239 65.1818 156.239 62.5455C156.239 59.8788 155.663 57.7121 154.511 56.0455C153.39 54.3485 151.769 53.1061 149.648 52.3182C147.557 51.5 145.027 51.0909 142.057 51.0909H133.148V124H107.875ZM162.42 81.2727L185.693 124H158.239L135.511 81.2727H162.42Z" fill="#FEDE29"/>
<path d="M179 67C180.126 68.4046 180.27 70.0029 182 70.5C183.78 71.0116 185.294 70.4065 186.5 69C187.548 67.7775 187.924 66.5535 187.5 65C186.901 62.8032 184.687 62.635 182.5 62C177.328 60.4983 175.246 62.318 179 67Z" fill="black" stroke="black"/>
<path d="M166 68.9998C170.107 63.1985 171 66.4997 183 75.4998C195 84.4999 182.911 82.2086 180 84.4998C175.679 87.9004 169.567 85.064 166.5 80.4998C163.993 76.7685 163.403 72.6689 166 68.9998Z" fill="white" stroke="white"/>
<path d="M181 82.5C181 82.5 172.115 78.0545 166 78C165.805 77.9983 165.694 77.9827 165.5 78C163.498 78.1785 165.799 80.3939 168 82.5C170.201 84.6062 171.965 84.631 172.5 85C173.821 85.9119 174.678 85.1787 176.5 87C178.322 88.8214 175.865 91.7116 177 93.5C178.311 95.5657 177.568 98.7364 180 99C181.831 99.1985 182.978 98.0329 184 96.5C185.52 94.2195 184.053 92.1843 183.5 89.5C182.914 86.657 181 82.5 181 82.5Z" fill="#FB7070" stroke="#F8B2B2"/>
<path d="M8.5 59C8.5 59 16.2597 63.9023 18 69C19.6451 73.8187 20.5147 77.7042 17 82C13.4853 86.2958 15.5 97 8 93C7.36957 92.6638 6.83452 92.3841 6.38328 92.1538L6.5 93C6.5 93 1.4663 89.6442 6.38328 92.1538L2.5 64L8.5 59Z" fill="white" stroke="white"/>
<path d="M74 66C72.5617 67.9006 69 69.5 69 69.5H69.5C70.6716 69.5 71.4828 68.9187 72.5 69.5C73.6373 70.1499 72.8876 71.8085 74 72.5C75.337 73.3311 76.8244 70.953 78 72C79.1665 73.0389 77 75 78 76L81.5 79.5C81.5 79.5 85.3333 80.3333 87 80.5C88.6667 80.6667 83.0517 76.9801 83 74C82.9437 70.7507 87.5216 70.2497 87.5 67C87.4657 61.8414 79.6619 56.8664 76 60.5C74.3777 62.1098 75.3791 64.1775 74 66Z" fill="white" stroke="white"/>
<path d="M110.5 42.9999C105.884 43.8985 108.446 34.5757 111.5 30.9999C114.733 27.2143 124 28.4999 124 28.4999C124 28.4999 127.048 29.7948 128 31.4999C129.142 33.5459 128.396 35.1904 128 37.4999C127.54 40.1804 125.109 43.9999 125.5 43.9999C125.89 43.9999 126.111 43.9641 126.5 43.9999C130.62 44.3787 118.892 53.5089 123 53.9999C124.179 54.1408 124.816 53.4051 126 53.4999C130.815 53.8851 125.5 63.4998 123 65.4999C120.5 67.4999 113.473 73.9169 113 61.4999C112.903 58.9558 113.874 57.5181 113.5 54.9999C113.164 52.7392 111.737 51.773 111.5 49.4999C111.166 46.2968 116.713 41.2874 113.5 41.4999C112.193 41.5863 111.786 42.7495 110.5 42.9999Z" fill="#F2B150" stroke="#B58133"/>
<path d="M187.5 67.5002C186.21 68.8291 184.17 62.7113 186 63.0002C186.964 63.1524 187.584 63.617 188 64.5002C188.506 65.5746 188.327 66.6481 187.5 67.5002Z" fill="#6C6C6C" stroke="#6C6C6C"/>
<path d="M129.5 115.5C120.741 116.408 112.829 110.399 107 117C105.493 118.707 103.333 120.667 104 122C104.667 123.333 106.2 126.1 107 126.5C108 127 110 127.5 113 128C116 128.5 120 128 122.5 127.5C125 127 128.5 127.5 129.5 127.5C130.5 127.5 134.5 128.5 136 128.5C137.5 128.5 136.5 125.5 136.5 125C136.5 124.6 137.167 123.833 137.5 123.5C137.833 123.167 134.822 122.372 135.5 121.5C135.879 121.012 136.668 121.521 137 121C137.524 120.176 134.621 120.4 135 119.5C135.312 118.758 136.369 119.5 137 119C138.531 117.788 135.813 115.724 134 115C132.358 114.344 131.259 115.318 129.5 115.5Z" fill="#D5993E" stroke="#B58133"/>
<path d="M183.5 120C185.226 121.446 186.097 122.003 185.5 124C185.389 124.374 185.379 124.629 185.5 125C185.832 126.014 162.085 126.342 156.5 125C154.518 124.524 154.982 122.039 155 120C155.106 108.005 174.55 112.504 183.5 120Z" fill="#D5993E" stroke="#B58133"/>
<path d="M101 74.9997C106.287 79.8576 92.0671 90.7962 108 91.9997C111.894 92.2938 110.109 98.7127 108 102C104.199 107.925 88.8062 102.689 91 95.9997C93.0912 89.6231 92.9652 84.7358 89 78.4997C86.1403 74.0022 91.2637 70.3228 91 64.9997C90.7443 59.8375 92.9994 59.1918 102 58.9997C111.431 58.7984 94.3168 61.7071 93.5 70.4997C93.1 74.8051 98.4849 72.6885 101 74.9997Z" fill="#B58133" stroke="#B58133"/>
</svg>
